 http://img16.imageshack.us/img16/2132/thetreeoflife2011.jpg

Country.......: USA
Genre.........: Drama, Adventure
Date release..: 27.05.2011 [World]
Director......: Terrence Malick
Writers.......: Terrence Malick
Duration......: 135 min.
More..........: http://www.imdb.com/title/tt0478304
Trailer.......: http://www.imdb.com/video/imdb/vi612735001
Trailer.......:

Pilot :
The story centers around a family with three boys in the 1950s. The eldest son witnesses the loss of innocence.

Cats :
Brad Pitt   	 ...  	Mr. O Brien
Sean Penn 	... 	Jack
Jessica Chastain 	... 	Mrs. O Brien
Hunter McCracken 	... 	Young Jack
Laramie Eppler 	... 	R.L.
Tye Sheridan 	... 	Steve
Fiona Shaw 	... 	Grandmother
Jessica Fuselier 	... 	Guide
Nicolas Gonda 	... 	Mr. Reynolds
Will Wallace 	... 	Architect
Kelly Koonce 	... 	Father Haynes
Bryce Boudoin 	... 	Robert
Jimmy Donaldson 	... 	Jimmy
Kameron Vaughn 	... 	Cayler
Cole Cockburn 	... 	Harry Bates 

Data Technical :
!!! SAMPLE !!!
Audio.....: English
Subtitles.: None
Format                           : AVI
Format/Info                      : Audio Video Interleave
Format profile                   : OpenDML
File size                        : 1.59 GiB
Duration                         : 54mn 12s
Overall bit rate                 : 4 194 Kbps
Video
ID                               : 0
Format                           : MPEG-4 Visual
Format profile                   : Simple@L3
Format settings, BVOP            : No
Format settings, QPel            : No
Format settings, GMC             : No warppoints
Format settings, Matrix          : Default (H.263)
Codec ID                         : XVID
Codec ID/Hint                    : XviD
Duration                         : 54mn 12s
Bit rate                         : 1 529 Kbps
Width                            : 720 pixels
Height                           : 480 pixels
Display aspect ratio             : 3:2
Frame rate                       : 29.970 fps
Original frame rate              : 29.000 fps
Standard                         : NTSC
Color space                      : YUV
Chroma subsampling               : 4:2:0
Bit depth                        : 8 bits
Scan type                        : Progressive
Bits/(Pixel*Frame)               : 0.148
Stream size                      : 593 MiB (36%)
Writing library                  : XviD 1.2.1 (UTC 2008-12-04)
Audio
ID                               : 1
Format                           : MPEG Audio
Format version                   : Version 1
Format profile                   : Layer 3
Mode                             : Joint stereo
Mode extension                   : MS Stereo
Codec ID                         : 55
Codec ID/Hint                    : MP3
Duration                         : 49mn 39s
Bit rate mode                    : Constant
Bit rate                         : 128 Kbps
Channel(s)                       : 2 channels
Sampling rate                    : 44.1 KHz
Stream size                      : 45.5 MiB (3%)
Alignment                        : Aligned on interleaves
Interleave, duration             : 29 ms (0.85 video frame)
Writing library                  : LAME3.98.2

Screen : 
http://img717.imageshack.us/img717/1697/thetreeoflife2011s1.jpg 
http://img8.imageshack.us/img8/9700/thetreeoflife2011s2.jpg 
http://img43.imageshack.us/img43/7166/thetreeoflife2011s3.jpg 
http://img52.imageshack.us/img52/6356/thetreeoflife2011s4.jpg 
http://img194.imageshack.us/img194/7950/thetreeoflife2011s5.jpg